<?xml version="1.0" encoding="UTF-8" standalone="no"?>
<svg
   xmlns:dc="http://purl.org/dc/elements/1.1/"
   xmlns:cc="http://creativecommons.org/ns#"
   xmlns:rdf="http://www.w3.org/1999/02/22-rdf-syntax-ns#"
   xmlns:svg="http://www.w3.org/2000/svg"
   xmlns="http://www.w3.org/2000/svg"
   id="svg12"
   version="1.1"
   width="22"
   viewBox="0 0 48 48"
   height="22"
   fill="#262626">
  <metadata
     id="metadata18">
    <rdf:RDF>
      <cc:Work
         rdf:about="">
        <dc:format>image/svg+xml</dc:format>
        <dc:type
           rdf:resource="http://purl.org/dc/dcmitype/StillImage" />
        <dc:title></dc:title>
      </cc:Work>
    </rdf:RDF>
  </metadata>
  <defs
     id="defs16" />
  <path
     id="path10"
     fill-rule="evenodd"
     d="M24 0C10.8 0 0 10.8 0 24s10.8 24 24 24 24-10.8 24-24S37.2 0 24 0zm12.2 13.8l-7 14.8c-.1.3-.4.6-.7.7l-14.8 7c-.2.1-.4.1-.6.1-.4 0-.8-.2-1.1-.4-.4-.4-.6-1.1-.3-1.7l7-14.8c.1-.3.4-.6.7-.7l14.8-7c.6-.3 1.3-.2 1.7.3.5.4.6 1.1.3 1.7zm-15 7.4l-5 10.5 10.5-5-5.5-5.5z"
     clip-rule="evenodd" />
</svg>
