<?xml version="1.0" encoding="UTF-8" standalone="no"?>
<svg
   xmlns:dc="http://purl.org/dc/elements/1.1/"
   xmlns:cc="http://creativecommons.org/ns#"
   xmlns:rdf="http://www.w3.org/1999/02/22-rdf-syntax-ns#"
   xmlns:svg="http://www.w3.org/2000/svg"
   xmlns="http://www.w3.org/2000/svg"
   id="svg25"
   version="1.1"
   width="22"
   viewBox="0 0 48 48"
   height="22"
   fill="#262626">
  <metadata
     id="metadata31">
    <rdf:RDF>
      <cc:Work
         rdf:about="">
        <dc:format>image/svg+xml</dc:format>
        <dc:type
           rdf:resource="http://purl.org/dc/dcmitype/StillImage" />
        <dc:title></dc:title>
      </cc:Work>
    </rdf:RDF>
  </metadata>
  <defs
     id="defs29" />
  <path
     id="path23"
     fill-rule="evenodd"
     d="M24 0C10.8 0 0 10.8 0 24s10.8 24 24 24 24-10.8 24-24S37.2 0 24 0zm0 45C12.4 45 3 35.6 3 24S12.4 3 24 3s21 9.4 21 21-9.4 21-21 21zm10.2-33.2l-14.8 7c-.3.1-.6.4-.7.7l-7 14.8c-.3.6-.2 1.3.3 1.7.3.3.7.4 1.1.4.2 0 .4 0 .6-.1l14.8-7c.3-.1.6-.4.7-.7l7-14.8c.3-.6.2-1.3-.3-1.7-.4-.5-1.1-.6-1.7-.3zm-7.4 15l-5.5-5.5 10.5-5-5 10.5z"
     clip-rule="evenodd" />
</svg>
