<?xml version="1.0" encoding="UTF-8" standalone="no"?>
<svg
   xmlns:dc="http://purl.org/dc/elements/1.1/"
   xmlns:cc="http://creativecommons.org/ns#"
   xmlns:rdf="http://www.w3.org/1999/02/22-rdf-syntax-ns#"
   xmlns:svg="http://www.w3.org/2000/svg"
   xmlns="http://www.w3.org/2000/svg"
   id="svg12"
   version="1.1"
   viewBox="0 0 48 48"
   width="22"
   height="22"
   fill="#262626">
  <metadata
     id="metadata18">
    <rdf:RDF>
      <cc:Work
         rdf:about="">
        <dc:format>image/svg+xml</dc:format>
        <dc:type
           rdf:resource="http://purl.org/dc/dcmitype/StillImage" />
        <dc:title></dc:title>
      </cc:Work>
    </rdf:RDF>
  </metadata>
  <defs
     id="defs16" />
  <path
     id="path10"
     d="M45.3 48H30c-.8 0-1.5-.7-1.5-1.5V34.2c0-2.6-2-4.6-4.6-4.6s-4.6 2-4.6 4.6v12.3c0 .8-.7 1.5-1.5 1.5H2.5c-.8 0-1.5-.7-1.5-1.5V23c0-.4.2-.8.4-1.1L22.9.4c.6-.6 1.5-.6 2.1 0l21.5 21.5c.4.4.6 1.1.3 1.6 0 .1-.1.1-.1.2v22.8c.1.8-.6 1.5-1.4 1.5zm-13.8-3h12.3V23.4L24 3.6l-20 20V45h12.3V34.2c0-4.3 3.3-7.6 7.6-7.6s7.6 3.3 7.6 7.6V45z" />
</svg>
