<?xml version="1.0" encoding="UTF-8" standalone="no"?>
<svg
   xmlns:dc="http://purl.org/dc/elements/1.1/"
   xmlns:cc="http://creativecommons.org/ns#"
   xmlns:rdf="http://www.w3.org/1999/02/22-rdf-syntax-ns#"
   xmlns:svg="http://www.w3.org/2000/svg"
   xmlns="http://www.w3.org/2000/svg"
   id="svg12"
   version="1.1"
   width="12"
   viewBox="0 0 48 48"
   height="12"
   fill="#262626">
  <metadata
     id="metadata18">
    <rdf:RDF>
      <cc:Work
         rdf:about="">
        <dc:format>image/svg+xml</dc:format>
        <dc:type
           rdf:resource="http://purl.org/dc/dcmitype/StillImage" />
        <dc:title></dc:title>
      </cc:Work>
    </rdf:RDF>
  </metadata>
  <defs
     id="defs16" />
  <path
     id="path10"
     fill-rule="evenodd"
     d="M45 1.5H3c-.8 0-1.5.7-1.5 1.5v42c0 .8.7 1.5 1.5 1.5h42c.8 0 1.5-.7 1.5-1.5V3c0-.8-.7-1.5-1.5-1.5zm-40.5 3h11v11h-11v-11zm0 14h11v11h-11v-11zm11 25h-11v-11h11v11zm14 0h-11v-11h11v11zm0-14h-11v-11h11v11zm0-14h-11v-11h11v11zm14 28h-11v-11h11v11zm0-14h-11v-11h11v11zm0-14h-11v-11h11v11z"
     clip-rule="evenodd" />
</svg>
