<?xml version="1.0" encoding="UTF-8" standalone="no"?>
<svg
   xmlns:dc="http://purl.org/dc/elements/1.1/"
   xmlns:cc="http://creativecommons.org/ns#"
   xmlns:rdf="http://www.w3.org/1999/02/22-rdf-syntax-ns#"
   xmlns:svg="http://www.w3.org/2000/svg"
   xmlns="http://www.w3.org/2000/svg"
   id="svg12"
   version="1.1"
   width="24"
   viewBox="0 0 48 48"
   height="24"
   fill="#262626">
  <metadata
     id="metadata18">
    <rdf:RDF>
      <cc:Work
         rdf:about="">
        <dc:format>image/svg+xml</dc:format>
        <dc:type
           rdf:resource="http://purl.org/dc/dcmitype/StillImage" />
        <dc:title></dc:title>
      </cc:Work>
    </rdf:RDF>
  </metadata>
  <defs
     id="defs16" />
  <path
     id="path10"
     fill-rule="evenodd"
     d="M46.7 20.6l-2.1-1.1c-.4-.2-.7-.5-.8-1-.5-1.6-1.1-3.2-1.9-4.7-.2-.4-.3-.8-.1-1.2l.8-2.3c.2-.5 0-1.1-.4-1.5l-2.9-2.9c-.4-.4-1-.5-1.5-.4l-2.3.8c-.4.1-.8.1-1.2-.1-1.4-.8-3-1.5-4.6-1.9-.4-.1-.8-.4-1-.8l-1.1-2.2c-.3-.5-.8-.8-1.3-.8h-4.1c-.6 0-1.1.3-1.3.8l-1.1 2.2c-.2.4-.5.7-1 .8-1.6.5-3.2 1.1-4.6 1.9-.4.2-.8.3-1.2.1l-2.3-.8c-.5-.2-1.1 0-1.5.4L5.9 8.8c-.4.4-.5 1-.4 1.5l.8 2.3c.1.4.1.8-.1 1.2-.8 1.5-1.5 3-1.9 4.7-.1.4-.4.8-.8 1l-2.1 1.1c-.5.3-.8.8-.8 1.3V26c0 .6.3 1.1.8 1.3l2.1 1.1c.4.2.7.5.8 1 .5 1.6 1.1 3.2 1.9 4.7.2.4.3.8.1 1.2l-.8 2.3c-.2.5 0 1.1.4 1.5L8.8 42c.4.4 1 .5 1.5.4l2.3-.8c.4-.1.8-.1 1.2.1 1.4.8 3 1.5 4.6 1.9.4.1.8.4 1 .8l1.1 2.2c.3.5.8.8 1.3.8h4.1c.6 0 1.1-.3 1.3-.8l1.1-2.2c.2-.4.5-.7 1-.8 1.6-.5 3.2-1.1 4.6-1.9.4-.2.8-.3 1.2-.1l2.3.8c.5.2 1.1 0 1.5-.4l2.9-2.9c.4-.4.5-1 .4-1.5l-.8-2.3c-.1-.4-.1-.8.1-1.2.8-1.5 1.5-3 1.9-4.7.1-.4.4-.8.8-1l2.1-1.1c.5-.3.8-.8.8-1.3v-4.1c.4-.5.1-1.1-.4-1.3zM24 41.5c-9.7 0-17.5-7.8-17.5-17.5S14.3 6.5 24 6.5 41.5 14.3 41.5 24 33.7 41.5 24 41.5z"
     clip-rule="evenodd" />
</svg>
